<svg width="18" height="19" viewBox="0 0 18 19" fill="none" xmlns="http://www.w3.org/2000/svg">
<g clip-path="url(#clip0)">
<path d="M2.60986 10.4675C2.93955 11.1696 3.57655 11.9232 4.26719 12.5951C4.14364 12.1042 4.0875 11.5768 4.0875 11.0388C4.0875 9.98415 4.30314 8.88919 4.6488 7.95088C4.84385 8.24447 5.11 8.56905 5.46754 8.90095C5.46532 8.85118 5.46418 8.80122 5.46418 8.75103C5.46418 5.94248 8.8984 2.50172 10.9278 0.900391C10.8291 1.23376 10.7868 1.56552 10.7868 1.89578C10.7868 3.983 12.2604 5.58153 12.2604 7.73462C12.2604 7.76797 12.2601 7.8013 12.2595 7.83462C12.7434 7.21344 13.0578 6.50549 13.2513 5.76737C14.0287 7.34547 14.4253 8.49551 14.4253 9.58364C14.4253 10.0244 14.3602 10.455 14.229 10.8998C14.578 10.6789 14.9792 10.4742 15.3899 10.2961C15.1949 13.1772 13.7157 15.6152 11.6505 16.76C11.4195 15.9698 11.3056 15.1589 11.3056 14.3491C11.3056 13.1425 11.5585 11.9382 12.0537 10.8088C11.2181 11.5117 10.5994 12.278 10.1392 13.1573C10.1355 12.9317 10.1325 12.7056 10.1325 12.4789C10.1325 10.9495 10.3172 9.44844 10.5782 7.94516C9.06141 9.29032 8.21623 11.1159 8.20597 14.1476C7.73686 13.3955 7.32555 12.5431 7.16582 11.7574C6.78144 12.614 6.61265 13.548 6.61265 14.4821C6.61265 15.1448 6.73938 16.2558 7.06575 17.1004C4.66919 16.1831 2.87878 13.6008 2.60986 10.4675Z" fill="#FF0023"/>
</g>
<defs>
<clipPath id="clip0">
<rect width="18" height="18.0522" fill="white" transform="translate(0 0.0693359)"/>
</clipPath>
</defs>
</svg>
